<svg width="40" height="32" viewBox="0 0 40 32" fill="none" xmlns="http://www.w3.org/2000/svg">
<path d="M1.71582 27.0082C1.71582 28.6605 3.05523 29.9999 4.70745 29.9999H35.1849C36.8369 29.9999 38.1765 28.6605 38.1765 27.0082V21.5045C35.7524 20.8474 33.9694 18.6319 33.9694 15.9999C33.9694 13.368 35.7524 11.1524 38.1765 10.4953V4.99164C38.1765 3.33941 36.8369 2 35.1849 2H4.70745C3.05523 2 1.71582 3.33941 1.71582 4.99164V10.4828C4.16361 11.124 5.96954 13.3511 5.96954 15.9999C5.96954 18.6488 4.16361 20.8758 1.71582 21.517V27.0082Z" stroke="#606060" stroke-width="3" stroke-linecap="round" stroke-linejoin="round"/>
<path d="M26.2563 2.02368V6.93185" stroke="#606060" stroke-width="3" stroke-linecap="round" stroke-linejoin="round"/>
<path d="M26.2563 13.5459V18.454" stroke="#606060" stroke-width="3" stroke-linecap="round" stroke-linejoin="round"/>
<path d="M26.2563 25.092V30.0001" stroke="#606060" stroke-width="3" stroke-linecap="round" stroke-linejoin="round"/>
</svg>
