<svg width="36" height="38" viewBox="0 0 36 38" fill="none" xmlns="http://www.w3.org/2000/svg">
<path d="M12.0405 35.7586C14.2456 35.7586 16.0331 33.9709 16.0331 31.766C16.0331 29.5608 14.2456 27.7732 12.0405 27.7732C9.83542 27.7732 8.04785 29.5608 8.04785 31.766C8.04785 33.9709 9.83542 35.7586 12.0405 35.7586Z" stroke="#606060" stroke-width="3" stroke-linecap="round" stroke-linejoin="round"/>
<path d="M30.0076 30.7673C32.2125 30.7673 34.0001 28.9797 34.0001 26.7747C34.0001 24.5696 32.2125 22.782 30.0076 22.782C27.8024 22.782 26.0149 24.5696 26.0149 26.7747C26.0149 28.9797 27.8024 30.7673 30.0076 30.7673Z" stroke="#606060" stroke-width="3" stroke-linecap="round" stroke-linejoin="round"/>
<path d="M34.0001 26.775V11.1239C33.9993 10.9712 33.9633 10.8207 33.895 10.684C33.827 10.5473 33.7283 10.4281 33.6067 10.3356C33.4854 10.243 33.3441 10.1795 33.1942 10.1501C33.0444 10.1206 32.8897 10.126 32.7423 10.1657L24.7571 12.3816" stroke="#606060" stroke-width="3" stroke-linecap="round" stroke-linejoin="round"/>
<path d="M34 15.7957L19.4578 19.8352" stroke="#606060" stroke-width="3" stroke-linecap="round" stroke-linejoin="round"/>
<path d="M12.371 6.87748C13.5571 5.27489 14.2869 2 14.2869 2C14.2869 2 15.0167 5.27489 16.2029 6.87745C17.3986 8.49295 21.2101 9.9074 21.2101 9.9074C21.2101 9.9074 17.3986 11.3219 16.2029 12.9374C15.0167 14.54 14.2869 17.8149 14.2869 17.8149C14.2869 17.8149 13.5571 14.54 12.371 12.9374C11.1753 11.3219 7.36377 9.90742 7.36377 9.90742C7.36377 9.90742 11.1753 8.49298 12.371 6.87748Z" stroke="#606060" stroke-width="3" stroke-linecap="round" stroke-linejoin="round"/>
<path d="M16.033 31.766V23.6609" stroke="#606060" stroke-width="3" stroke-linecap="round" stroke-linejoin="round"/>
<path d="M5.02368 17.613V23.661" stroke="#606060" stroke-width="3" stroke-linecap="round" stroke-linejoin="round"/>
<path d="M2 20.637H8.04795" stroke="#606060" stroke-width="3" stroke-linecap="round" stroke-linejoin="round"/>
</svg>
