<svg width="44" height="33" viewBox="0 0 44 33" fill="none" xmlns="http://www.w3.org/2000/svg">
<path d="M13.5728 10.0261V17.5168" stroke="#606060" stroke-width="3" stroke-linecap="round" stroke-linejoin="round"/>
<path d="M17.3193 13.7715H9.82861" stroke="#606060" stroke-width="3" stroke-linecap="round" stroke-linejoin="round"/>
<path d="M3.38224 10.6505L2.04614 22.6755C1.55908 27.0591 4.99039 30.8928 9.40086 30.8928C12.2038 30.8928 14.7661 29.309 16.0196 26.802L17.1846 24.4721H26.8155L27.9805 26.802C29.234 29.309 31.7964 30.8928 34.5993 30.8928C39.0096 30.8928 42.441 27.0591 41.9538 22.6755L40.6177 10.6505C40.0705 5.72577 35.9079 2 30.9529 2H13.0471C8.09212 2 3.92943 5.72577 3.38224 10.6505Z" stroke="#606060" stroke-width="3" stroke-linejoin="round"/>
<path d="M33.2359 11.6313C32.7927 11.6313 32.4336 11.2719 32.4336 10.8287C32.4336 10.3854 32.7927 10.0261 33.2359 10.0261" stroke="#606060" stroke-width="3" stroke-linecap="round" stroke-linejoin="round"/>
<path d="M33.2358 11.6313C33.6793 11.6313 34.0384 11.2719 34.0384 10.8287C34.0384 10.3854 33.6793 10.0261 33.2358 10.0261" stroke="#606060" stroke-width="3" stroke-linecap="round" stroke-linejoin="round"/>
<path d="M27.6187 15.6441C27.6187 15.2009 27.978 14.8416 28.4212 14.8416C28.8645 14.8416 29.2238 15.2009 29.2238 15.6441" stroke="#606060" stroke-width="3" stroke-linecap="round" stroke-linejoin="round"/>
<path d="M27.6191 15.6438C27.6191 16.0871 27.9785 16.4464 28.4217 16.4464C28.865 16.4464 29.2243 16.0871 29.2243 15.6438" stroke="#606060" stroke-width="3" stroke-linecap="round" stroke-linejoin="round"/>
</svg>
