<svg width="451" height="49" viewBox="0 0 451 49" fill="none" xmlns="http://www.w3.org/2000/svg">
<path d="M60.9648 19.668V22H51.9062V19.668H60.9648ZM52.7383 4.9375V22H49.7969V4.9375H52.7383ZM59.7812 12.0625V14.3594H51.9062V12.0625H59.7812ZM60.9062 4.9375V7.28125H51.9062V4.9375H60.9062ZM66.9062 19.7617L70.0117 9.32031H72.9414L68.5352 22H66.707L66.9062 19.7617ZM64.5273 9.32031L67.6914 19.8086L67.8438 22H66.0156L61.5859 9.32031H64.5273ZM80.1133 22.2344C79.1758 22.2344 78.3281 22.082 77.5703 21.7773C76.8203 21.4648 76.1797 21.0312 75.6484 20.4766C75.125 19.9219 74.7227 19.2695 74.4414 18.5195C74.1602 17.7695 74.0195 16.9609 74.0195 16.0938V15.625C74.0195 14.6328 74.1641 13.7344 74.4531 12.9297C74.7422 12.125 75.1445 11.4375 75.6602 10.8672C76.1758 10.2891 76.7852 9.84766 77.4883 9.54297C78.1914 9.23828 78.9531 9.08594 79.7734 9.08594C80.6797 9.08594 81.4727 9.23828 82.1523 9.54297C82.832 9.84766 83.3945 10.2773 83.8398 10.832C84.293 11.3789 84.6289 12.0312 84.8477 12.7891C85.0742 13.5469 85.1875 14.3828 85.1875 15.2969V16.5039H75.3906V14.4766H82.3984V14.2539C82.3828 13.7461 82.2812 13.2695 82.0938 12.8242C81.9141 12.3789 81.6367 12.0195 81.2617 11.7461C80.8867 11.4727 80.3867 11.3359 79.7617 11.3359C79.293 11.3359 78.875 11.4375 78.5078 11.6406C78.1484 11.8359 77.8477 12.1211 77.6055 12.4961C77.3633 12.8711 77.1758 13.3242 77.043 13.8555C76.918 14.3789 76.8555 14.9688 76.8555 15.625V16.0938C76.8555 16.6484 76.9297 17.1641 77.0781 17.6406C77.2344 18.1094 77.4609 18.5195 77.7578 18.8711C78.0547 19.2227 78.4141 19.5 78.8359 19.7031C79.2578 19.8984 79.7383 19.9961 80.2773 19.9961C80.957 19.9961 81.5625 19.8594 82.0938 19.5859C82.625 19.3125 83.0859 18.9258 83.4766 18.4258L84.9648 19.8672C84.6914 20.2656 84.3359 20.6484 83.8984 21.0156C83.4609 21.375 82.9258 21.668 82.293 21.8945C81.668 22.1211 80.9414 22.2344 80.1133 22.2344ZM90.1914 12.0273V22H87.3672V9.32031H90.0273L90.1914 12.0273ZM89.6875 15.1914L88.7734 15.1797C88.7812 14.2812 88.9062 13.457 89.1484 12.707C89.3984 11.957 89.7422 11.3125 90.1797 10.7734C90.625 10.2344 91.1562 9.82031 91.7734 9.53125C92.3906 9.23438 93.0781 9.08594 93.8359 9.08594C94.4453 9.08594 94.9961 9.17188 95.4883 9.34375C95.9883 9.50781 96.4141 9.77734 96.7656 10.1523C97.125 10.5273 97.3984 11.0156 97.5859 11.6172C97.7734 12.2109 97.8672 12.9414 97.8672 13.8086V22H95.0312V13.7969C95.0312 13.1875 94.9414 12.707 94.7617 12.3555C94.5898 11.9961 94.3359 11.7422 94 11.5938C93.6719 11.4375 93.2617 11.3594 92.7695 11.3594C92.2852 11.3594 91.8516 11.4609 91.4688 11.6641C91.0859 11.8672 90.7617 12.1445 90.4961 12.4961C90.2383 12.8477 90.0391 13.2539 89.8984 13.7148C89.7578 14.1758 89.6875 14.668 89.6875 15.1914ZM106.562 9.32031V11.3828H99.4141V9.32031H106.562ZM101.477 6.21484H104.301V18.4961C104.301 18.8867 104.355 19.1875 104.465 19.3984C104.582 19.6016 104.742 19.7383 104.945 19.8086C105.148 19.8789 105.387 19.9141 105.66 19.9141C105.855 19.9141 106.043 19.9023 106.223 19.8789C106.402 19.8555 106.547 19.832 106.656 19.8086L106.668 21.9648C106.434 22.0352 106.16 22.0977 105.848 22.1523C105.543 22.207 105.191 22.2344 104.793 22.2344C104.145 22.2344 103.57 22.1211 103.07 21.8945C102.57 21.6602 102.18 21.2812 101.898 20.7578C101.617 20.2344 101.477 19.5391 101.477 18.6719V6.21484ZM118 17.6055C118 17.2539 117.945 16.9414 117.836 16.668C117.734 16.3945 117.551 16.1445 117.285 15.918C117.02 15.6914 116.645 15.4727 116.16 15.2617C115.684 15.043 115.074 14.8203 114.332 14.5938C113.52 14.3438 112.77 14.0664 112.082 13.7617C111.402 13.4492 110.809 13.0898 110.301 12.6836C109.793 12.2695 109.398 11.7969 109.117 11.2656C108.836 10.7266 108.695 10.1055 108.695 9.40234C108.695 8.70703 108.84 8.07422 109.129 7.50391C109.426 6.93359 109.844 6.44141 110.383 6.02734C110.93 5.60547 111.574 5.28125 112.316 5.05469C113.059 4.82031 113.879 4.70312 114.777 4.70312C116.043 4.70312 117.133 4.9375 118.047 5.40625C118.969 5.875 119.676 6.50391 120.168 7.29297C120.668 8.08203 120.918 8.95312 120.918 9.90625H118C118 9.34375 117.879 8.84766 117.637 8.41797C117.402 7.98047 117.043 7.63672 116.559 7.38672C116.082 7.13672 115.477 7.01172 114.742 7.01172C114.047 7.01172 113.469 7.11719 113.008 7.32812C112.547 7.53906 112.203 7.82422 111.977 8.18359C111.75 8.54297 111.637 8.94922 111.637 9.40234C111.637 9.72266 111.711 10.0156 111.859 10.2812C112.008 10.5391 112.234 10.7812 112.539 11.0078C112.844 11.2266 113.227 11.4336 113.688 11.6289C114.148 11.8242 114.691 12.0117 115.316 12.1914C116.262 12.4727 117.086 12.7852 117.789 13.1289C118.492 13.4648 119.078 13.8477 119.547 14.2773C120.016 14.707 120.367 15.1953 120.602 15.7422C120.836 16.2812 120.953 16.8945 120.953 17.582C120.953 18.3008 120.809 18.9492 120.52 19.5273C120.23 20.0977 119.816 20.5859 119.277 20.9922C118.746 21.3906 118.105 21.6992 117.355 21.918C116.613 22.1289 115.785 22.2344 114.871 22.2344C114.051 22.2344 113.242 22.125 112.445 21.9062C111.656 21.6875 110.938 21.3555 110.289 20.9102C109.641 20.457 109.125 19.8945 108.742 19.2227C108.359 18.543 108.168 17.75 108.168 16.8438H111.109C111.109 17.3984 111.203 17.8711 111.391 18.2617C111.586 18.6523 111.855 18.9727 112.199 19.2227C112.543 19.4648 112.941 19.6445 113.395 19.7617C113.855 19.8789 114.348 19.9375 114.871 19.9375C115.559 19.9375 116.133 19.8398 116.594 19.6445C117.062 19.4492 117.414 19.1758 117.648 18.8242C117.883 18.4727 118 18.0664 118 17.6055ZM126.109 11.7578V26.875H123.285V9.32031H125.887L126.109 11.7578ZM134.371 15.543V15.7891C134.371 16.7109 134.262 17.5664 134.043 18.3555C133.832 19.1367 133.516 19.8203 133.094 20.4062C132.68 20.9844 132.168 21.4336 131.559 21.7539C130.949 22.0742 130.246 22.2344 129.449 22.2344C128.66 22.2344 127.969 22.0898 127.375 21.8008C126.789 21.5039 126.293 21.0859 125.887 20.5469C125.48 20.0078 125.152 19.375 124.902 18.6484C124.66 17.9141 124.488 17.1094 124.387 16.2344V15.2852C124.488 14.3555 124.66 13.5117 124.902 12.7539C125.152 11.9961 125.48 11.3438 125.887 10.7969C126.293 10.25 126.789 9.82812 127.375 9.53125C127.961 9.23438 128.645 9.08594 129.426 9.08594C130.223 9.08594 130.93 9.24219 131.547 9.55469C132.164 9.85938 132.684 10.2969 133.105 10.8672C133.527 11.4297 133.844 12.1094 134.055 12.9062C134.266 13.6953 134.371 14.5742 134.371 15.543ZM131.547 15.7891V15.543C131.547 14.957 131.492 14.4141 131.383 13.9141C131.273 13.4062 131.102 12.9609 130.867 12.5781C130.633 12.1953 130.332 11.8984 129.965 11.6875C129.605 11.4688 129.172 11.3594 128.664 11.3594C128.164 11.3594 127.734 11.4453 127.375 11.6172C127.016 11.7812 126.715 12.0117 126.473 12.3086C126.23 12.6055 126.043 12.9531 125.91 13.3516C125.777 13.7422 125.684 14.168 125.629 14.6289V16.9023C125.723 17.4648 125.883 17.9805 126.109 18.4492C126.336 18.918 126.656 19.293 127.07 19.5742C127.492 19.8477 128.031 19.9844 128.688 19.9844C129.195 19.9844 129.629 19.875 129.988 19.6562C130.348 19.4375 130.641 19.1367 130.867 18.7539C131.102 18.3633 131.273 17.9141 131.383 17.4062C131.492 16.8984 131.547 16.3594 131.547 15.7891ZM139.562 4V22H136.75V4H139.562ZM139.07 15.1914L138.156 15.1797C138.164 14.3047 138.285 13.4961 138.52 12.7539C138.762 12.0117 139.098 11.3672 139.527 10.8203C139.965 10.2656 140.488 9.83984 141.098 9.54297C141.707 9.23828 142.383 9.08594 143.125 9.08594C143.75 9.08594 144.312 9.17188 144.812 9.34375C145.32 9.51562 145.758 9.79297 146.125 10.1758C146.492 10.5508 146.77 11.043 146.957 11.6523C147.152 12.2539 147.25 12.9883 147.25 13.8555V22H144.414V13.832C144.414 13.2227 144.324 12.7383 144.145 12.3789C143.973 12.0195 143.719 11.7617 143.383 11.6055C143.047 11.4414 142.637 11.3594 142.152 11.3594C141.645 11.3594 141.195 11.4609 140.805 11.6641C140.422 11.8672 140.102 12.1445 139.844 12.4961C139.586 12.8477 139.391 13.2539 139.258 13.7148C139.133 14.1758 139.07 14.668 139.07 15.1914ZM155.699 22.2344C154.762 22.2344 153.914 22.082 153.156 21.7773C152.406 21.4648 151.766 21.0312 151.234 20.4766C150.711 19.9219 150.309 19.2695 150.027 18.5195C149.746 17.7695 149.605 16.9609 149.605 16.0938V15.625C149.605 14.6328 149.75 13.7344 150.039 12.9297C150.328 12.125 150.73 11.4375 151.246 10.8672C151.762 10.2891 152.371 9.84766 153.074 9.54297C153.777 9.23828 154.539 9.08594 155.359 9.08594C156.266 9.08594 157.059 9.23828 157.738 9.54297C158.418 9.84766 158.98 10.2773 159.426 10.832C159.879 11.3789 160.215 12.0312 160.434 12.7891C160.66 13.5469 160.773 14.3828 160.773 15.2969V16.5039H150.977V14.4766H157.984V14.2539C157.969 13.7461 157.867 13.2695 157.68 12.8242C157.5 12.3789 157.223 12.0195 156.848 11.7461C156.473 11.4727 155.973 11.3359 155.348 11.3359C154.879 11.3359 154.461 11.4375 154.094 11.6406C153.734 11.8359 153.434 12.1211 153.191 12.4961C152.949 12.8711 152.762 13.3242 152.629 13.8555C152.504 14.3789 152.441 14.9688 152.441 15.625V16.0938C152.441 16.6484 152.516 17.1641 152.664 17.6406C152.82 18.1094 153.047 18.5195 153.344 18.8711C153.641 19.2227 154 19.5 154.422 19.7031C154.844 19.8984 155.324 19.9961 155.863 19.9961C156.543 19.9961 157.148 19.8594 157.68 19.5859C158.211 19.3125 158.672 18.9258 159.062 18.4258L160.551 19.8672C160.277 20.2656 159.922 20.6484 159.484 21.0156C159.047 21.375 158.512 21.668 157.879 21.8945C157.254 22.1211 156.527 22.2344 155.699 22.2344ZM165.812 11.7344V22H162.988V9.32031H165.684L165.812 11.7344ZM169.691 9.23828L169.668 11.8633C169.496 11.832 169.309 11.8086 169.105 11.793C168.91 11.7773 168.715 11.7695 168.52 11.7695C168.035 11.7695 167.609 11.8398 167.242 11.9805C166.875 12.1133 166.566 12.3086 166.316 12.5664C166.074 12.8164 165.887 13.1211 165.754 13.4805C165.621 13.8398 165.543 14.2422 165.52 14.6875L164.875 14.7344C164.875 13.9375 164.953 13.1992 165.109 12.5195C165.266 11.8398 165.5 11.2422 165.812 10.7266C166.133 10.2109 166.531 9.80859 167.008 9.51953C167.492 9.23047 168.051 9.08594 168.684 9.08594C168.855 9.08594 169.039 9.10156 169.234 9.13281C169.438 9.16406 169.59 9.19922 169.691 9.23828ZM176.816 22.2344C175.879 22.2344 175.031 22.082 174.273 21.7773C173.523 21.4648 172.883 21.0312 172.352 20.4766C171.828 19.9219 171.426 19.2695 171.145 18.5195C170.863 17.7695 170.723 16.9609 170.723 16.0938V15.625C170.723 14.6328 170.867 13.7344 171.156 12.9297C171.445 12.125 171.848 11.4375 172.363 10.8672C172.879 10.2891 173.488 9.84766 174.191 9.54297C174.895 9.23828 175.656 9.08594 176.477 9.08594C177.383 9.08594 178.176 9.23828 178.855 9.54297C179.535 9.84766 180.098 10.2773 180.543 10.832C180.996 11.3789 181.332 12.0312 181.551 12.7891C181.777 13.5469 181.891 14.3828 181.891 15.2969V16.5039H172.094V14.4766H179.102V14.2539C179.086 13.7461 178.984 13.2695 178.797 12.8242C178.617 12.3789 178.34 12.0195 177.965 11.7461C177.59 11.4727 177.09 11.3359 176.465 11.3359C175.996 11.3359 175.578 11.4375 175.211 11.6406C174.852 11.8359 174.551 12.1211 174.309 12.4961C174.066 12.8711 173.879 13.3242 173.746 13.8555C173.621 14.3789 173.559 14.9688 173.559 15.625V16.0938C173.559 16.6484 173.633 17.1641 173.781 17.6406C173.938 18.1094 174.164 18.5195 174.461 18.8711C174.758 19.2227 175.117 19.5 175.539 19.7031C175.961 19.8984 176.441 19.9961 176.98 19.9961C177.66 19.9961 178.266 19.8594 178.797 19.5859C179.328 19.3125 179.789 18.9258 180.18 18.4258L181.668 19.8672C181.395 20.2656 181.039 20.6484 180.602 21.0156C180.164 21.375 179.629 21.668 178.996 21.8945C178.371 22.1211 177.645 22.2344 176.816 22.2344Z" fill="url(#paint0_linear_50_3705)"/>
<defs>
<linearGradient id="paint0_linear_50_3705" x1="0.25" y1="24.5" x2="450.25" y2="24.5" gradientUnits="userSpaceOnUse">
<stop stop-color="#FF6190"/>
<stop offset="1" stop-color="#FF2D46"/>
</linearGradient>
</defs>
</svg>
