<svg width="37" height="38" viewBox="0 0 37 38" fill="none" xmlns="http://www.w3.org/2000/svg">
<path d="M22.3734 13.6538C23.8037 13.6538 24.9631 12.4943 24.9631 11.0641C24.9631 9.63384 23.8037 8.47437 22.3734 8.47437C20.9432 8.47437 19.7837 9.63384 19.7837 11.0641C19.7837 12.4943 20.9432 13.6538 22.3734 13.6538Z" stroke="#606060" stroke-width="3" stroke-linecap="round" stroke-linejoin="round"/>
<path d="M12.0146 26.6022C12.7297 26.6022 13.3094 26.0224 13.3094 25.3073C13.3094 24.5922 12.7297 24.0125 12.0146 24.0125C11.2995 24.0125 10.7197 24.5922 10.7197 25.3073C10.7197 26.0224 11.2995 26.6022 12.0146 26.6022Z" stroke="#606060" stroke-width="3" stroke-linecap="round" stroke-linejoin="round"/>
<path d="M12.0145 17.5386C13.4448 17.5386 14.6043 16.3791 14.6043 14.9489C14.6043 13.5186 13.4448 12.3591 12.0145 12.3591C10.5843 12.3591 9.4248 13.5186 9.4248 14.9489C9.4248 16.3791 10.5843 17.5386 12.0145 17.5386Z" stroke="#606060" stroke-width="3" stroke-linecap="round" stroke-linejoin="round"/>
<path d="M25.0151 32.5069C24.9862 32.0045 24.8116 31.5215 24.5127 31.1168C24.2138 30.7123 23.8034 30.4033 23.3318 30.228C22.1604 29.8429 21.1649 29.0528 20.524 27.9995C19.8832 26.946 19.6392 25.6987 19.8358 24.4815C20.0324 23.2643 20.6568 22.1572 21.5967 21.3592C22.5366 20.5612 23.7303 20.1247 24.9633 20.1281H29.806C30.6365 20.1304 31.4557 19.9329 32.194 19.5523C32.9321 19.1717 33.5681 18.6191 34.048 17.9411C34.5279 17.2632 34.8376 16.4798 34.9513 15.657C35.065 14.8342 34.979 13.9961 34.7006 13.2135C33.6707 10.3052 31.861 7.73585 29.4696 5.78631C27.0783 3.83674 24.1971 2.58192 21.1409 2.15894C18.0847 1.73596 14.971 2.16109 12.14 3.38789C9.30904 4.61469 6.8697 6.59593 5.08849 9.11521C3.30728 11.6345 2.25273 14.5948 2.04005 17.6728C1.82737 20.7509 2.46474 23.8281 3.88254 26.5684C5.30031 29.3086 7.44397 31.6067 10.0793 33.2111C12.7147 34.8157 15.7403 35.6651 18.8256 35.6664C20.3493 35.6705 21.8661 35.4616 23.3318 35.0449C23.8701 34.8941 24.3362 34.5546 24.6452 34.0887C24.9543 33.6228 25.0855 33.0617 25.0151 32.5069Z" stroke="#606060" stroke-width="3" stroke-linecap="round" stroke-linejoin="round"/>
</svg>
