<svg width="32" height="35" viewBox="0 0 32 35" fill="none" xmlns="http://www.w3.org/2000/svg">
<path d="M20.9905 2V16.3993L29.6061 27.3668C30.0258 27.8979 30.2872 28.5365 30.3604 29.2094C30.4336 29.8823 30.3155 30.5622 30.0198 31.1711C29.7242 31.7799 29.2629 32.2933 28.6888 32.6518C28.1148 33.0104 27.4512 33.1999 26.7742 33.1985H5.60726C4.93039 33.1999 4.26683 33.0104 3.69273 32.6518C3.11865 32.2933 2.65727 31.7799 2.36161 31.1711C2.06594 30.5622 1.94791 29.8823 2.02111 29.2094C2.09431 28.5365 2.35573 27.8979 2.77539 27.3668L11.391 16.3993V2" stroke="#606060" stroke-width="3" stroke-linecap="round" stroke-linejoin="round"/>
<path d="M7.79102 2H24.5902" stroke="#606060" stroke-width="3" stroke-linecap="round" stroke-linejoin="round"/>
</svg>
