<svg width="50" height="35" viewBox="0 0 50 35" fill="none" xmlns="http://www.w3.org/2000/svg">
<path d="M2 25.161C2 27.2724 2.83881 29.2975 4.33189 30.7907C5.82498 32.2836 7.85001 33.1226 9.96156 33.1226C12.0731 33.1226 14.0981 32.2836 15.5912 30.7907C17.0843 29.2975 17.9231 27.2724 17.9231 25.161C17.9231 23.0496 17.0843 21.0246 15.5912 19.5314C14.0981 18.0383 12.0731 17.1995 9.96156 17.1995C7.85001 17.1995 5.82498 18.0383 4.33189 19.5314C2.83881 21.0246 2 23.0496 2 25.161Z" stroke="#606060" stroke-width="3" stroke-linecap="round" stroke-linejoin="round"/>
<path d="M32.0769 25.161C32.0769 27.2724 32.9157 29.2975 34.4088 30.7907C35.902 32.2836 37.9271 33.1226 40.0385 33.1226C42.1499 33.1226 44.1749 32.2836 45.6682 30.7907C47.1611 29.2975 48 27.2724 48 25.161C48 23.0496 47.1611 21.0246 45.6682 19.5314C44.1749 18.0383 42.1499 17.1995 40.0385 17.1995C37.9271 17.1995 35.902 18.0383 34.4088 19.5314C32.9157 21.0246 32.0769 23.0496 32.0769 25.161Z" stroke="#606060" stroke-width="3" stroke-linecap="round" stroke-linejoin="round"/>
<path d="M25.0002 22.5075L14.3848 4.81519" stroke="#606060" stroke-width="3" stroke-linecap="round" stroke-linejoin="round"/>
<path d="M17.7573 10.4358L9.96167 25.1611L25.0002 22.5073L35.088 10.738" stroke="#606060" stroke-width="3" stroke-linecap="round" stroke-linejoin="round"/>
<path d="M40.0389 25.1613L31.9961 1.72974H41.3396" stroke="#606060" stroke-width="3" stroke-linecap="round" stroke-linejoin="round"/>
<path d="M10.8464 4.81519H19.6926" stroke="#606060" stroke-width="3" stroke-linecap="round" stroke-linejoin="round"/>
</svg>
