<svg width="38" height="40" viewBox="0 0 38 40" fill="none" xmlns="http://www.w3.org/2000/svg">
<path d="M12.802 31.9297C13.3658 39.4688 19.8047 38.5528 22.5939 36.7239C27.3119 33.6304 30.4398 32.8322 35.9997 33.2778" stroke="#606060" stroke-width="3" stroke-linecap="round" stroke-linejoin="round"/>
<path d="M23.8776 12.6235C23.8776 7.07284 18.9188 2 12.8021 2C6.68536 2 1.72705 7.07284 1.72705 12.6235C1.72705 18.1741 6.68536 24.2992 12.8021 24.2992C18.9188 24.2992 23.8776 18.1741 23.8776 12.6235Z" stroke="#606060" stroke-width="3" stroke-linecap="round" stroke-linejoin="round"/>
<path d="M12.8755 24.2993L9.43236 28.5503C8.68984 29.4669 9.32907 30.8513 10.4948 30.8513H15.1606C16.3175 30.8513 16.9595 29.4851 16.235 28.5652L12.8755 24.2993Z" stroke="#606060" stroke-width="3" stroke-linecap="round" stroke-linejoin="round"/>
</svg>
